<?xml version="1.0" encoding="UTF-8"?>
<svg width="100px" height="40px" viewBox="0 0 100 40" version="1.1" xmlns="http://www.w3.org/2000/svg" xmlns:xlink="http://www.w3.org/1999/xlink">
    <!-- Generator: Sketch 49.1 (51147) - http://www.bohemiancoding.com/sketch -->
    <title>BoxSand_Logo_100_40</title>
    <desc>Created with Sketch.</desc>
    <defs>
        <path d="M7.51478779,19.8674876 L1.99802652,17.1761871 L1.29324255,8.88052776 L7.51478779,12.5325313 L13.736333,8.88052776 L13.0315491,17.1761871 L7.51478779,19.8674876 Z" id="path-1"></path>
        <polygon id="path-2" points="5.15837231 6.70238281 11.8961835 4.74406817 10.4134208 11.6986991 3.09646705 13.1105309"></polygon>
        <polygon id="path-3" points="1.21869009 8.92729952 7.49632525 12.6892163 6.32489352 14.3740077 2.84217094e-14 10.2400687"></polygon>
        <polygon id="path-4" points="7.47983529 12.6190714 13.7712855 8.88155086 14.9303533 10.3192963 9.11579565 13.8949512"></polygon>
    </defs>
    <g id="BoxSand_Logo_100_40" stroke="none" stroke-width="1" fill="none" fill-rule="evenodd">
        <g id="Example-Logo" transform="translate(18.353708, 25.108133) rotate(125.000000) translate(-18.353708, -25.108133) translate(9.353708, 15.108133)">
            <g id="Combined-Shape">
                <use fill="#F36B32" fill-rule="evenodd" xlink:href="#path-1"></use>
                <path stroke="#979797" stroke-width="1" d="M7.51478779,19.311163 L12.5573588,16.8511917 L13.1563515,9.80074884 L7.51478779,13.1123073 L1.87322407,9.80074884 L2.47221673,16.8511917 L7.51478779,19.311163 Z"></path>
            </g>
            <g id="Rectangle-7" transform="translate(7.496325, 8.927300) rotate(45.000000) translate(-7.496325, -8.927300) ">
                <use fill="#DC4405" fill-rule="evenodd" xlink:href="#path-2"></use>
                <path stroke="#979797" stroke-width="1" d="M5.55298237,7.10838176 L3.83117627,12.4595435 L9.99347584,11.2705063 L11.2328254,5.45756083 L5.55298237,7.10838176 Z"></path>
            </g>
            <path d="M5.21190158,4.92202863 C5.29976609,4.91827573 5.39220213,4.91640699 5.48936886,4.91640699 C5.73677959,4.91640699 5.99679103,4.92852276 6.25533882,4.9530089 C6.65038678,4.78671304 7.14875787,4.68751199 7.69043829,4.68751199 C8.00663713,4.68751199 8.30807838,4.72131463 8.58282483,4.78253372 C8.98670473,4.60079665 9.50796121,4.49131628 10.0770148,4.49131628 C10.500706,4.49131628 10.8979003,4.55200792 11.2398788,4.65802707 C11.4352275,4.61374913 11.6579163,4.58941414 11.9096505,4.58941414 C12.2254298,4.58941414 12.5574769,4.62770664 12.8786462,4.6956222 C12.9662007,4.69026487 13.0552346,4.68751199 13.1454703,4.68751199 C13.5364649,4.68751199 13.9048944,4.73919783 14.2281888,4.83049491 L15.2528869,5.40698264 C15.3910116,5.56597546 15.4681206,5.74321271 15.4681206,5.93008483 C15.4681206,6.31138756 15.1470831,6.6525762 14.6417236,6.88051066 C14.7361941,6.97420332 14.7862416,7.07203371 14.7862416,7.17265768 C14.7862416,7.85891171 12.4584234,8.41523052 9.58691424,8.41523052 C8.32584811,8.41523052 7.16964141,8.30793563 6.26940954,8.12946049 L4.41689138,5.6539867 L5.21190158,4.92202863 Z" id="Combined-Shape" stroke="#979797" fill="#FFB500" transform="translate(9.942506, 6.453273) rotate(-121.000000) translate(-9.942506, -6.453273) "></path>
            <path d="M13.7121145,15.7917668 L9.19160782,15.7917668 L9.19160782,17.1377076 C7.96204803,17.2459904 7.11931904,17.078185 6.66342085,16.6342915 C6.44540949,16.4220208 6.10099266,16.0340325 5.63017034,15.4703267 C6.08111718,14.9176021 6.42553402,14.5254284 6.66342085,14.2938056 C7.11931904,13.8499121 7.96204803,13.6710154 9.19160782,13.7571154 L9.19160782,15.1488866 L13.7077137,15.1488866 C13.75442,14.7018106 13.9090882,14.3057036 14.183693,14.1616062 C14.8694102,13.8017798 15.485496,13.7450973 16.2352348,14.1616062 C16.9849737,14.5781151 16.9378701,16.3822695 16.2352348,16.8249672 C15.5325996,17.2676649 14.8072584,17.1972602 14.183693,16.8249672 C13.9271349,16.671792 13.7656133,16.254717 13.7121145,15.7917668 Z M14.4116421,14.530491 C13.7634118,15.0059501 13.8128676,15.9632986 14.4116421,16.4175167 C14.8108251,16.7203288 15.3427063,16.7719589 16.0072857,16.5724071 L16.0072857,14.3682463 C15.3756768,14.1594367 14.8437956,14.2135183 14.4116421,14.530491 Z" id="Combined-Shape" fill="#000000" transform="translate(11.205094, 15.452847) rotate(-195.000000) translate(-11.205094, -15.452847) "></path>
            <g id="Rectangle-8">
                <use fill="#D8D8D8" fill-rule="evenodd" xlink:href="#path-3"></use>
                <path stroke="#979797" stroke-width="1" d="M1.30935937,9.56453785 L0.769722774,10.1458327 L6.19174069,13.6896538 L6.78036444,12.8430759 L1.30935937,9.56453785 Z"></path>
            </g>
            <g id="Rectangle-9">
                <use fill="#D8D8D8" fill-rule="evenodd" xlink:href="#path-4"></use>
                <path stroke="#979797" stroke-width="1" d="M8.3646175,12.6750282 L9.14956716,13.2872077 L14.184611,10.1909139 L13.6540397,9.53277594 L8.3646175,12.6750282 Z"></path>
            </g>
        </g>
        <text id="BoxSand" font-family="HelveticaNeue-Bold, Helvetica Neue" font-size="15" font-weight="bold" fill="#000000">
            <tspan x="24.4075" y="25">BoxSand</tspan>
        </text>
    </g>
</svg>