<?xml version="1.0" encoding="UTF-8"?>
<svg width="265px" height="41px" viewBox="0 0 265 41" version="1.1" xmlns="http://www.w3.org/2000/svg" xmlns:xlink="http://www.w3.org/1999/xlink">
    <!-- Generator: Sketch 49.1 (51147) - http://www.bohemiancoding.com/sketch -->
    <title>BoxSand_Tutor_Logo_265_41</title>
    <desc>Created with Sketch.</desc>
    <defs>
        <path d="M16.2931644,46.4345482 L4.33201515,39.8110206 L2.80393993,19.3946726 L16.2931644,28.3825749 L29.782389,19.3946726 L28.2543137,39.8110206 L16.2931644,46.4345482 Z" id="path-1"></path>
        <polygon id="path-2" points="11.1841093 14.0340661 25.7926742 9.2144814 22.5778267 26.3304405 6.71359568 29.8050827"></polygon>
        <polygon id="path-3" points="2.64229924 19.5097821 16.253135 28.7681905 13.7132988 32.9146104 2.84217094e-14 22.7406227"></polygon>
        <polygon id="path-4" points="16.2173823 28.5955576 29.8581711 19.3971906 32.3712005 22.9356087 19.7643848 31.7356101"></polygon>
    </defs>
    <g id="BoxSand_Tutor_Logo_265_41" stroke="none" stroke-width="1" fill="none" fill-rule="evenodd">
        <g id="Example-Logo" transform="translate(28.804067, 22.898491) rotate(125.000000) translate(-28.804067, -22.898491) translate(9.804067, -0.601509)">
            <g id="Combined-Shape">
                <use fill="#F36B32" fill-rule="evenodd" xlink:href="#path-1"></use>
                <path stroke="#979797" stroke-width="1" d="M16.2931644,45.8630058 L27.7758628,39.5044221 L29.207344,20.3786507 L16.2931644,28.9833991 L3.37898494,20.3786507 L4.81046609,39.5044221 L16.2931644,45.8630058 Z"></path>
            </g>
            <g id="Rectangle-7" transform="translate(16.253135, 19.509782) rotate(45.000000) translate(-16.253135, -19.509782) ">
                <use fill="#DC4405" fill-rule="evenodd" xlink:href="#path-2"></use>
                <path stroke="#979797" stroke-width="1" d="M11.5927817,14.4257473 L7.4223931,29.1379869 L22.1475211,25.9128353 L25.1448973,9.95470102 L11.5927817,14.4257473 Z"></path>
            </g>
            <path d="M12.4507981,10.0115618 C12.4613104,10.0115387 12.4718485,10.0115271 12.4824124,10.0115271 C13.0188353,10.0115271 13.5825783,10.0413451 14.1431479,10.1016076 C14.9996699,9.69233886 16.0802117,9.44819636 17.2546545,9.44819636 C17.94022,9.44819636 18.593789,9.53138762 19.1894796,9.6820532 C20.0651506,9.23478228 21.1953113,8.96534144 22.4291031,8.96534144 C23.3477279,8.96534144 24.2089036,9.11470891 24.9503633,9.37563136 C25.3739078,9.26665947 25.8567299,9.2067689 26.4025268,9.2067689 C27.0871827,9.2067689 27.8071095,9.30101013 28.5034517,9.4681563 C28.6932828,9.45497143 28.8863213,9.44819636 29.0819655,9.44819636 C31.8631872,9.44819636 34.1178128,10.8173459 34.1178128,12.5062775 C34.1178128,13.4446971 33.4217564,14.2843924 32.3260627,14.8453592 C32.5308887,15.0759451 32.6393989,15.3167143 32.6393989,15.5643587 C32.6393989,17.2532903 27.5923471,18.6224399 21.3664931,18.6224399 C17.9146535,18.6224399 14.8251773,18.2015638 12.7573438,17.538659 L9.39060306,12.856928 L12.4507981,10.0115618 Z" id="Combined-Shape" stroke="#979797" fill="#FFB500" transform="translate(21.754208, 13.793891) rotate(-121.000000) translate(-21.754208, -13.793891) "></path>
            <path d="M29.7298796,36.4038404 L19.9287567,36.4038404 L19.9287567,39.7163193 C17.2628904,39.9828127 15.4357301,39.5698289 14.4472758,38.4773679 C13.9745951,37.954951 13.2278488,37.0000777 12.2070368,35.612748 C13.1847558,34.2524441 13.9315022,33.2872702 14.4472758,32.717226 C15.4357301,31.624765 17.2628904,31.1844844 19.9287567,31.3963842 L19.9287567,34.8216555 L29.720338,34.8216555 C29.8216041,33.7213623 30.1569475,32.746508 30.7523311,32.3918716 C32.2390667,31.5063072 33.5748314,31.3668065 35.2003754,32.3918716 C36.8259193,33.4169367 36.7237919,37.8571196 35.2003754,38.9466376 C33.6769588,40.0361555 32.1043126,39.8628833 30.7523311,38.9466376 C30.1960755,38.5696599 29.8458729,37.5432015 29.7298796,36.4038404 Z M31.2465583,33.2997296 C29.8410998,34.4698763 29.9483271,36.8259953 31.2465583,37.9438661 C32.1120457,38.6891133 33.2652424,38.8161796 34.7061482,38.3250649 L34.7061482,32.900431 C33.3367272,32.3865323 32.1835305,32.5196319 31.2465583,33.2997296 Z" id="Combined-Shape" fill="#000000" transform="translate(24.294291, 35.569729) rotate(-195.000000) translate(-24.294291, -35.569729) "></path>
            <g id="Rectangle-8">
                <use fill="#D8D8D8" fill-rule="evenodd" xlink:href="#path-3"></use>
                <path stroke="#979797" stroke-width="1" d="M2.73955873,20.1806517 L0.718894738,22.6513951 L13.5723575,32.1874647 L15.5777776,28.9135081 L2.73955873,20.1806517 Z"></path>
            </g>
            <g id="Rectangle-9">
                <use fill="#D8D8D8" fill-rule="evenodd" xlink:href="#path-4"></use>
                <path stroke="#979797" stroke-width="1" d="M17.0322304,28.6491412 L19.8010243,31.1002695 L31.6716646,22.8141444 L29.7330995,20.0845885 L17.0322304,28.6491412 Z"></path>
            </g>
        </g>
        <text id="BoxSand" font-family="HelveticaNeue-Bold, Helvetica Neue" font-size="30" font-weight="bold" fill="#000000">
            <tspan x="47.56169" y="29.705303">BoxSand</tspan>
        </text>
        <text id="Tutor" font-family="HelveticaNeue-LightItalic, Helvetica Neue" font-size="30" font-style="italic" font-weight="300" fill="#000000">
            <tspan x="180.48" y="30">Tutor</tspan>
        </text>
    </g>
</svg>