<?xml version="1.0" encoding="UTF-8"?>
<svg width="174px" height="40px" viewBox="0 0 174 40" version="1.1" xmlns="http://www.w3.org/2000/svg" xmlns:xlink="http://www.w3.org/1999/xlink">
    <!-- Generator: Sketch 49.1 (51147) - http://www.bohemiancoding.com/sketch -->
    <title>BoxSand_Logo_174_40</title>
    <desc>Created with Sketch.</desc>
    <defs>
        <path d="M15.7164461,40.5509137 L4.17867769,34.922321 L2.70469073,17.5727581 L15.7164461,25.2105676 L28.7282015,17.5727581 L27.2542146,34.922321 L15.7164461,40.5509137 Z" id="path-1"></path>
        <polygon id="path-2" points="10.7882328 13.0173803 24.8797081 8.92175612 21.7786544 23.4666889 6.47595899 26.4193973"></polygon>
        <polygon id="path-3" points="2.54877153 17.6705767 15.6778335 25.538259 13.2278983 29.0618359 2.84217094e-14 20.4161056"></polygon>
        <polygon id="path-4" points="15.6433464 25.3915577 28.8013013 17.5748979 31.2253786 20.5818023 19.064798 28.0599359"></polygon>
    </defs>
    <g id="BoxSand_Logo_174_40" stroke="none" stroke-width="1" fill="none" fill-rule="evenodd">
        <g id="Example-Logo" transform="translate(27.919814, 25.311985) rotate(125.000000) translate(-27.919814, -25.311985) translate(9.919814, 4.811985)">
            <g id="Combined-Shape">
                <use fill="#F36B32" fill-rule="evenodd" xlink:href="#path-1"></use>
                <path stroke="#979797" stroke-width="1" d="M15.7164461,39.994589 L26.7800243,34.5973256 L28.14822,18.4929792 L15.7164461,25.7903436 L3.28467225,18.4929792 L4.65286791,34.5973256 L15.7164461,39.994589 Z"></path>
            </g>
            <g id="Rectangle-7" transform="translate(15.677834, 17.670577) rotate(45.000000) translate(-15.677834, -17.670577) ">
                <use fill="#DC4405" fill-rule="evenodd" xlink:href="#path-2"></use>
                <path stroke="#979797" stroke-width="1" d="M11.1828429,13.4233792 L7.21066822,25.7684099 L21.3587095,23.038496 L24.21635,9.63524878 L11.1828429,13.4233792 Z"></path>
            </g>
            <path d="M10.9001841,9.29394309 C11.0839442,9.28609426 11.2772651,9.28218597 11.4804799,9.28218597 C11.9979153,9.28218597 12.5417039,9.30752492 13.0824314,9.35873529 C13.9086357,9.01094371 14.9509302,8.8034744 16.083802,8.8034744 C16.7451011,8.8034744 17.3755361,8.87416931 17.9501415,9.00220308 C18.7948169,8.62211772 19.884974,8.39315019 21.0750941,8.39315019 C21.9612029,8.39315019 22.7918963,8.52008084 23.5071109,8.74180955 C23.9156635,8.64920657 24.3813955,8.59831229 24.9078732,8.59831229 C25.5682947,8.59831229 26.2627388,8.67839734 26.9344331,8.82043611 C27.1175449,8.80923177 27.3037505,8.8034744 27.4924696,8.8034744 C28.3101967,8.8034744 29.0807312,8.91157028 29.7568698,9.10250923 L31.899926,10.3081771 C32.1888005,10.6406951 32.3500664,11.0113695 32.3500664,11.4021944 C32.3500664,12.1996518 31.6786478,12.9132146 30.6217376,13.3899173 C30.8193135,13.5858664 30.9239829,13.7904691 30.9239829,14.0009143 C30.9239829,15.4361478 26.0555782,16.5996343 20.0500966,16.5996343 C17.4126997,16.5996343 14.9946061,16.3752375 13.1118589,16.0019742 L9.23749777,10.824762 L10.9001841,9.29394309 Z" id="Combined-Shape" stroke="#979797" fill="#FFB500" transform="translate(20.793782, 12.496392) rotate(-121.000000) translate(-20.793782, -12.496392) "></path>
            <path d="M28.6775508,32.0269409 L19.2233518,32.0269409 L19.2233518,34.841845 C16.6518473,35.0683078 14.8893618,34.7173592 13.9358952,33.7889992 C13.4799457,33.3450557 12.7596314,32.5336161 11.7749524,31.3546802 C12.7180638,30.1987107 13.438378,29.3785176 13.9358952,28.8941011 C14.8893618,27.9657411 16.6518473,27.591596 19.2233518,27.7716658 L19.2233518,30.6824195 L28.6683469,30.6824195 C28.7660286,29.7474038 29.0895021,28.9189845 29.6638113,28.6176189 C31.0979219,27.865077 32.3864054,27.7465311 33.9544111,28.6176189 C35.5224167,29.4887066 35.4239043,33.2619198 33.9544111,34.1877788 C32.4849179,35.1136378 30.9679376,34.9663933 29.6638113,34.1877788 C29.1272451,33.8674278 28.7894384,32.995156 28.6775508,32.0269409 Z M30.1405446,29.3891055 C28.7848342,30.3834818 28.8882661,32.385683 30.1405446,33.3356359 C30.9753969,33.9689378 32.0877747,34.0769172 33.4776778,33.659574 L33.4776778,29.0497864 C32.1567292,28.6130816 31.0443515,28.726188 30.1405446,29.3891055 Z" id="Combined-Shape" fill="#000000" transform="translate(23.434362, 31.318123) rotate(-195.000000) translate(-23.434362, -31.318123) "></path>
            <g id="Rectangle-8">
                <use fill="#D8D8D8" fill-rule="evenodd" xlink:href="#path-3"></use>
                <path stroke="#979797" stroke-width="1" d="M2.63944081,18.307815 L0.769722774,20.3218696 L13.0947454,28.377482 L14.9618727,25.6921186 L2.63944081,18.307815 Z"></path>
            </g>
            <g id="Rectangle-9">
                <use fill="#D8D8D8" fill-rule="evenodd" xlink:href="#path-4"></use>
                <path stroke="#979797" stroke-width="1" d="M16.5281286,25.4475145 L19.0985695,27.4521924 L30.4796362,20.4534199 L28.6840554,18.2261229 L16.5281286,25.4475145 Z"></path>
            </g>
        </g>
        <text id="BoxSand" font-family="HelveticaNeue-Bold, Helvetica Neue" font-size="30" font-weight="bold" fill="#000000">
            <tspan x="38.315" y="28">BoxSand</tspan>
        </text>
    </g>
</svg>