<?xml version="1.0" encoding="UTF-8"?>
<svg width="610px" height="581px" viewBox="0 0 610 581" version="1.1" xmlns="http://www.w3.org/2000/svg" xmlns:xlink="http://www.w3.org/1999/xlink">
    <!-- Generator: Sketch 49.1 (51147) - http://www.bohemiancoding.com/sketch -->
    <title>LogoD1</title>
    <desc>Created with Sketch.</desc>
    <defs>
        <path d="M215,577 L57.1640495,494.695432 L37,241 L215,352.684507 L393,241 L372.835951,494.695432 L215,577 Z" id="path-1"></path>
        <polygon id="path-2" points="147.582351 174.388607 340.35285 114.5 297.93063 327.184495 88.590714 370.360721"></polygon>
        <polygon id="path-3" points="34.8670351 242.43036 214.471782 357.476202 180.956821 409 2.84217094e-14 282.577085"></polygon>
        <polygon id="path-4" points="214 355.331049 394 241.031288 427.161226 285 260.805244 394.349633"></polygon>
    </defs>
    <g id="LogoD1" stroke="none" stroke-width="1" fill="none" fill-rule="evenodd">
        <g id="Example-Logo" transform="translate(321.500000, 334.500000) rotate(125.000000) translate(-321.500000, -334.500000) translate(77.000000, 46.000000)">
            <g id="Combined-Shape">
                <use fill="#F36B32" fill-rule="evenodd" xlink:href="#path-1"></use>
                <path stroke="#979797" stroke-width="1" d="M215,576.436104 L372.359444,494.380014 L392.422719,241.952482 L215,353.274779 L37.5772813,241.952482 L57.6405564,494.380014 L215,576.436104 Z"></path>
            </g>
            <g id="Rectangle-7" transform="translate(214.471782, 242.430360) rotate(45.000000) translate(-214.471782, -242.430360) ">
                <use fill="#DC4405" fill-rule="evenodd" xlink:href="#path-2"></use>
                <path stroke="#979797" stroke-width="10" d="M151.604009,178.374923 L95.7964908,363.769294 L293.675379,322.956898 L333.804236,121.770216 L151.604009,178.374923 Z"></path>
            </g>
            <path d="M156.931246,122.445954 C158.241368,122.4179 159.58409,122.403901 160.959966,122.403901 C168.038451,122.403901 175.477445,122.774422 182.874563,123.52325 C194.176986,118.437638 208.43551,115.403901 223.933125,115.403901 C232.979655,115.403901 241.603967,116.437643 249.464533,118.309828 C261.01964,112.751998 275.932921,109.403901 292.213689,109.403901 C304.335603,109.403901 315.699435,111.259955 325.483527,114.502201 C331.072501,113.148107 337.443685,112.403901 344.645867,112.403901 C353.680393,112.403901 363.180344,113.574951 372.36908,115.651925 C374.874038,115.488088 377.421319,115.403901 380.002985,115.403901 C416.703201,115.403901 446.454605,132.41708 446.454605,153.403901 C446.454605,165.064789 437.269641,175.498921 422.811175,182.469546 C425.514001,185.334828 426.945872,188.326648 426.945872,191.403901 C426.945872,212.390721 360.3464,229.403901 278.191788,229.403901 C237.605177,229.403901 200.814998,225.251616 173.975853,218.519271 L125.117535,151.89313 L156.931246,122.445954 Z" id="Combined-Shape" stroke="#979797" stroke-width="10" fill="#FFB500" transform="translate(285.786070, 169.403901) rotate(-121.000000) translate(-285.786070, -169.403901) "></path>
            <path d="M392.307101,452.357496 L262.97425,452.357496 L262.97425,493.518665 C227.79623,496.830137 203.685538,491.698362 190.642174,478.12334 C184.404814,471.63174 174.55096,459.766396 161.080613,442.527308 C173.982317,425.624046 183.836171,413.630705 190.642174,406.547283 C203.685538,392.972262 227.79623,387.501294 262.97425,390.13438 L262.97425,432.69712 L392.181193,432.69712 C393.517472,419.024774 397.942569,406.911143 405.799083,402.504399 C425.417627,391.500293 443.044001,389.766845 464.49422,402.504399 C485.944439,415.241953 484.596795,470.416078 464.49422,483.954529 C444.391645,497.49298 423.639449,495.339883 405.799083,483.954529 C398.458891,479.270169 393.837717,466.515302 392.307101,452.357496 Z M412.320765,413.785527 C393.774732,428.325878 395.189673,457.603231 412.320765,471.493997 C423.741493,480.754508 438.95875,482.333445 457.972538,476.23081 L457.972538,408.823806 C439.902044,402.438053 424.684787,404.09196 412.320765,413.785527 Z" id="Combined-Shape" fill="#000000" transform="translate(320.580613, 441.992744) rotate(-195.000000) translate(-320.580613, -441.992744) "></path>
            <g id="Rectangle-8">
                <use fill="#D8D8D8" fill-rule="evenodd" xlink:href="#path-3"></use>
                <path stroke="#979797" stroke-width="1" d="M34.9612015,243.08446 L0.74184737,282.48543 L180.819501,408.294127 L213.7781,357.625645 L34.9612015,243.08446 Z"></path>
            </g>
            <g id="Rectangle-9">
                <use fill="#D8D8D8" fill-rule="evenodd" xlink:href="#path-4"></use>
                <path stroke="#979797" stroke-width="1" d="M214.846527,355.385794 L260.840527,393.728095 L426.44083,284.875187 L393.878588,241.700673 L214.846527,355.385794 Z"></path>
            </g>
        </g>
    </g>
</svg>