<?xml version="1.0" encoding="UTF-8"?>
<svg width="1440px" height="1024px" viewBox="0 0 1440 1024" version="1.1" xmlns="http://www.w3.org/2000/svg" xmlns:xlink="http://www.w3.org/1999/xlink">
    <!-- Generator: Sketch 49.1 (51147) - http://www.bohemiancoding.com/sketch -->
    <title>tutor-background</title>
    <desc>Created with Sketch.</desc>
    <defs>
        <path d="M209,207 L25.4492036,178.585328 L2,91 L209,120.859449 L209,120.34785 L416,91 L392.550796,178.585328 L209,207 Z" id="path-1"></path>
        <polygon id="path-2" points="208.5 71 417 90.4576966 208.5 121 5.68434189e-14 91.4624185"></polygon>
    </defs>
    <g id="tutor-background" stroke="none" stroke-width="1" fill="none" fill-rule="evenodd">
        <rect id="Rectangle-2" fill="#424242" x="0" y="-724" width="1440" height="3495"></rect>
        <path d="M150.993939,677 L191,759 L162.421212,759 L217,842 L118,842 L118,1024 L99,1024 L99,842 L0,842 L54.5787879,759 L30,759 L70.0060606,677 L45,677 L108.5,512 L172,677 L150.993939,677 Z" id="Triangle-4" stroke="#979797" fill="#4A773C"></path>
        <path d="M223.020134,710 L263,784 L234.385906,784 L289,859 L190,859 L190,1024 L171,1024 L171,859 L72,859 L126.614094,784 L102,784 L141.979866,710 L117,710 L180.5,561 L244,710 L223.020134,710 Z" id="Triangle-4" stroke="#979797" fill="#4A773C"></path>
        <path d="M1373.99394,677 L1414,759 L1385.42121,759 L1440,842 L1341,842 L1341,1024 L1322,1024 L1322,842 L1223,842 L1277.57879,759 L1253,759 L1293.00606,677 L1268,677 L1331.5,512 L1395,677 L1373.99394,677 Z" id="Triangle-4" stroke="#979797" fill="#4A773C"></path>
        <path d="M1298.02013,710 L1338,784 L1309.38591,784 L1364,859 L1265,859 L1265,1024 L1246,1024 L1246,859 L1147,859 L1201.61409,784 L1177,784 L1216.97987,710 L1192,710 L1255.5,561 L1319,710 L1298.02013,710 Z" id="Triangle-4" stroke="#979797" fill="#4A773C"></path>
        <g id="Example-Logo" transform="translate(512.000000, 797.000000)">
            <g id="Combined-Shape">
                <use fill="#F36B32" fill-rule="evenodd" xlink:href="#path-1"></use>
                <path stroke="#979797" stroke-width="1" d="M209,206.494044 L392.152123,178.141089 L415.32143,91.6012059 L209.5,120.781961 L209.5,121.436748 L2.67908622,91.6031323 L25.8478773,178.141089 L209,206.494044 Z"></path>
            </g>
            <g id="Rectangle-7">
                <use fill="#DC4405" fill-rule="evenodd" xlink:href="#path-2"></use>
                <path stroke="#979797" stroke-width="10" d="M208.511992,76.0228446 L42.0083553,92.3636939 L208.488076,115.948386 L374.986892,91.5586627 L208.511992,76.0228446 Z"></path>
            </g>
            <path d="M113.630632,89.3584908 C115.821838,84.9893779 123.949901,82.9 141.522713,82.9 C145.575929,82.9 149.835576,83.0111563 154.071246,83.2358047 C160.543134,81.7101212 168.707718,80.8 177.581818,80.8 C182.761958,80.8 187.700331,81.1101227 192.201375,81.671778 C198.817954,80.004429 207.357458,79 216.68,79 C223.621138,79 230.12819,79.5568162 235.730666,80.5294902 C238.930972,80.1232617 242.57918,79.9 246.703227,79.9 C251.876493,79.9 257.316267,80.2513151 262.577835,80.8744072 C264.012201,80.8252563 265.470801,80.8 266.949091,80.8 C287.964028,80.8 305,85.9039539 305,92.2 C305,95.6982666 299.740591,98.828506 291.461519,100.919694 C293.009186,101.779278 293.829091,102.676824 293.829091,103.6 C293.829091,109.896046 255.69352,115 208.650909,115 C183.129279,115 160.229254,113.497755 144.618052,111.117912 L113.630632,89.3584908 Z" id="Combined-Shape" stroke="#979797" stroke-width="10" fill="#FFB500"></path>
            <path d="M137.641087,120.113699 L47.229721,120.113699 L47.229721,146.378445 C22.6381898,148.49148 5.7833801,145.216918 -3.33470804,136.554762 C-7.69499465,132.412502 -14.5834253,124.841283 -24,113.841103 C-14.9809402,103.055212 -8.09250958,95.4023179 -3.33470804,90.8824206 C5.7833801,82.220264 22.6381898,78.7292655 47.229721,80.4094252 L47.229721,107.568507 L137.55307,107.568507 C138.487209,98.8442479 141.580615,91.114598 147.072786,88.3026754 C160.787317,81.281008 173.109202,80.1749029 188.104183,88.3026754 C203.099164,96.4304479 202.15708,131.636794 188.104183,140.275615 C174.051286,148.914436 159.544265,147.540556 147.072786,140.275615 C141.941555,137.286548 138.711079,129.147728 137.641087,120.113699 Z M151.63183,95.5011096 C138.667049,104.779238 139.656177,123.460978 151.63183,132.32461 C159.615599,138.233697 170.253369,139.24121 183.545139,135.347147 L183.545139,92.3350587 C170.912787,88.2603402 160.275018,89.3156906 151.63183,95.5011096 Z" id="Combined-Shape" fill="#000000" transform="translate(87.500000, 113.500000) rotate(-60.000000) translate(-87.500000, -113.500000) "></path>
        </g>
    </g>
</svg>